<?xml version="1.0" encoding="UTF-8" standalone="no"?>
<!DOCTYPE svg PUBLIC "-//W3C//DTD SVG 1.1//EN" "http://www.w3.org/Graphics/SVG/1.1/DTD/svg11.dtd">
<svg width="100%" height="100%" viewBox="0 0 782 385" version="1.1" xmlns="http://www.w3.org/2000/svg" xmlns:xlink="http://www.w3.org/1999/xlink" xml:space="preserve" xmlns:serif="http://www.serif.com/" style="fill-rule:evenodd;clip-rule:evenodd;stroke-linecap:round;stroke-linejoin:round;stroke-miterlimit:1.5;">
    <g transform="matrix(1,0,0,1,-20.586416,-5.034197)">
        <g transform="matrix(0.989503,0,0,0.989503,-75.790791,-297.623668)">
            <g id="BIG-STAGE" serif:id="BIG STAGE" transform="matrix(6.868206,0,0,6.868206,-23.086727,218.801062)">
                <g transform="matrix(0.329088,0,0,0.329088,12.172489,-41.274305)">
                    <g transform="matrix(0.417462,0,0,0.417462,-14.247261,41.269098)">
                        <path d="M251.263,324.606L251.263,536.815C251.263,537.642 250.921,538.432 250.32,538.998C249.718,539.565 248.909,539.859 248.084,539.81L101.357,531.067C99.773,530.973 98.536,529.66 98.536,528.072L98.536,359.525C98.536,358.136 99.49,356.928 100.841,356.607L247.568,321.688C248.461,321.475 249.402,321.683 250.122,322.252C250.842,322.821 251.263,323.688 251.263,324.606Z" style="fill:rgb(245,243,238);stroke:rgb(245,243,238);stroke-width:1px;"/>
                    </g>
                    <g transform="matrix(0.417462,0,0,0.417462,-14.247261,41.269098)">
                        <path d="M251.263,601.907L251.263,675.384C251.263,676.302 250.842,677.169 250.122,677.738C249.401,678.307 248.46,678.515 247.567,678.302L100.84,643.311C99.489,642.989 98.536,641.782 98.536,640.393L98.536,584.443C98.536,583.585 98.903,582.769 99.544,582.2C100.185,581.63 101.039,581.362 101.89,581.464L248.617,598.928C250.126,599.108 251.263,600.388 251.263,601.907Z" style="fill:rgb(245,243,238);stroke:rgb(245,243,238);stroke-width:1px;"/>
                    </g>
                    <g transform="matrix(0.417462,0,0,0.417462,-14.247261,41.269098)">
                        <path d="M366.207,550.067L366.207,569.95C366.207,570.792 365.853,571.595 365.232,572.164C364.611,572.732 363.78,573.013 362.941,572.939L214.01,559.687C212.463,559.549 211.276,558.252 211.276,556.698L211.276,541.519C211.276,540.694 211.617,539.905 212.217,539.338C212.817,538.771 213.624,538.477 214.448,538.524L363.379,547.072C364.966,547.163 366.207,548.477 366.207,550.067Z" style="fill:rgb(245,243,238);stroke:rgb(245,243,238);stroke-width:1px;"/>
                    </g>
                    <g transform="matrix(1.095329,0,0,1.095329,-108.686292,88.926698)">
                        <g transform="matrix(0.381129,0,0,0.381129,86.219764,-43.509838)">
                            <path d="M426.97,413.532L348.494,404.432C344.908,403.944 341.476,405.108 338.795,407.478L338.784,407.487C336.147,409.84 334.645,413.207 334.645,416.736L334.645,458.327C334.645,464.886 339.772,470.321 346.317,470.7L426.97,475.384L426.97,635.181L270.049,671.607L270.049,604.61L374.028,592.527L374.043,592.525C377.943,592.051 380.451,590.444 382.094,588.567C384.565,585.744 385.05,582.16 384.993,580.167L384.994,540.167C385.123,536.976 384.587,533.052 381.651,530.461C379.753,528.785 376.76,527.535 371.931,527.729L371.878,527.732L270.049,533.656L270.049,328.321L426.97,364.747L426.97,413.532Z" style="fill:rgb(245,243,238);"/>
                        </g>
                        <path d="M155.318,167.886L121.061,165.844C118.557,165.695 116.611,163.633 116.611,161.129L116.611,90.688C116.611,88.497 118.117,86.596 120.235,86.091C120.235,86.091 171.338,73.931 181.57,71.499C182.869,71.191 183.6,71.049 183.605,71.048L183.374,71.072C184.222,70.896 185.051,70.986 185.463,71.072L185.489,71.078L254.742,87.152C256.881,87.647 258.397,89.559 258.397,91.75L258.397,119.48C258.397,120.741 257.59,123.838 254.027,124.116L254.023,124.117L223.21,126.42L223.21,126.718L253.949,128.499C256.443,128.643 258.397,130.715 258.397,133.215L258.397,202.328C258.397,204.525 256.88,206.437 254.743,206.926L185.489,223.004C185.126,223.089 184.153,223.253 183.29,222.995L120.239,207.987L120.237,207.987C118.114,207.477 116.611,205.575 116.611,203.391C116.611,203.391 116.608,175.15 116.612,175.072L116.613,175.05C116.874,171.268 119.933,170.601 120.948,170.499L120.976,170.497L155.318,167.886ZM126.061,156.677L179.696,159.872L179.696,81.654L126.061,94.419L126.061,156.677ZM179.696,212.427L179.696,186.91L126.061,180.526L126.061,199.659L179.696,212.427ZM248.95,114.099L248.95,95.506L189.143,81.623L189.143,159.882L227.953,157.624L227.973,157.623C229.814,157.549 230.955,158.026 231.678,158.664C232.797,159.652 233.001,161.147 232.952,162.364L232.952,177.609C232.973,178.368 232.788,179.734 231.847,180.81C231.221,181.526 230.265,182.138 228.779,182.319L228.773,182.319L189.143,186.924L189.143,212.459L248.95,198.576L248.95,137.673L218.211,135.888C215.717,135.743 213.763,133.672 213.763,131.172L213.763,115.32C213.763,113.975 214.335,112.692 215.34,111.795L215.344,111.792C216.366,110.889 217.674,110.445 219.041,110.631L248.95,114.099ZM188.631,169.362L223.505,172.465L223.505,167.349C218.313,167.65 197.771,168.844 188.631,169.362Z" style="fill:rgb(245,243,238);stroke:rgb(245,243,238);stroke-width:4.97px;stroke-linecap:butt;stroke-miterlimit:2;"/>
                    </g>
                </g>
                <g transform="matrix(0.329088,0,0,0.329088,12.172489,-41.274305)">
                    <g transform="matrix(0.417462,0,0,0.417462,-14.247261,41.269098)">
                        <g>
                            <path d="M248.263,324.606L248.263,536.815C199.354,533.901 150.445,530.987 101.536,528.072L101.536,359.525C150.445,347.885 199.354,336.246 248.263,324.606Z" style="fill:rgb(245,233,0);"/>
                        </g>
                    </g>
                    <g transform="matrix(0.417462,0,0,0.417462,-14.247261,41.269098)">
                        <g>
                            <path d="M248.263,601.907L248.263,675.384C199.354,663.72 150.445,652.056 101.536,640.393L101.536,584.443C150.445,590.264 199.354,596.086 248.263,601.907Z" style="fill:rgb(245,233,0);"/>
                        </g>
                    </g>
                    <g transform="matrix(0.417462,0,0,0.417462,-14.247261,41.269098)">
                        <g>
                            <path d="M363.207,550.067L363.207,569.95C313.563,565.533 263.92,561.116 214.276,556.698L214.276,541.519C263.92,544.369 313.563,547.218 363.207,550.067Z" style="fill:rgb(245,233,0);"/>
                        </g>
                    </g>
                    <g transform="matrix(1.095329,0,0,1.095329,-108.686292,88.926698)">
                        <path d="M250.094,115.383L218.898,111.766C217.863,111.621 216.875,111.965 216.102,112.648C215.34,113.328 214.906,114.301 214.906,115.32L214.906,131.172C214.906,133.066 216.387,134.637 218.277,134.746L250.094,136.594L250.094,199.484L188,213.898L188,185.906L228.641,181.184C231.469,180.84 231.84,178.578 231.809,177.629L231.809,162.34C231.875,160.812 231.605,158.621 228.02,158.766L188,161.094L188,80.184L250.094,94.598L250.094,115.383ZM184.434,179.109L158.023,175.969L163.992,175.508L193.133,178.102L184.434,179.109ZM180.84,213.875L124.918,200.562L124.918,179.238L180.84,185.895L180.84,213.875ZM124.918,157.754L124.918,93.516L180.84,80.207L180.84,161.086L124.918,157.754ZM184.211,168.461C184.734,168.461 224.648,166.137 224.648,166.137L224.648,173.715L167.887,168.664L167.887,167.488L184.211,168.461ZM257.254,91.75C257.254,90.09 256.105,88.641 254.484,88.266L185.23,72.191C184.91,72.125 184.266,72.055 183.605,72.191C183.59,72.191 120.5,87.203 120.5,87.203C118.895,87.586 117.754,89.027 117.754,90.688L117.754,161.129C117.754,163.027 119.23,164.59 121.129,164.703L160.727,167.062L160.727,168.621L121.062,171.637C120.285,171.715 117.953,172.234 117.754,175.129C117.75,175.207 117.754,203.391 117.754,203.391C117.754,205.047 118.895,206.488 120.504,206.875L183.59,221.891C184.23,222.094 184.961,221.953 185.23,221.891L254.484,205.812C256.105,205.441 257.254,203.992 257.254,202.328L257.254,133.215C257.254,131.32 255.773,129.75 253.883,129.641L222.066,127.797L222.066,125.359L253.938,122.977C256.633,122.766 257.254,120.434 257.254,119.48L257.254,91.75" style="fill:rgb(43,42,42);fill-rule:nonzero;stroke:rgb(43,41,41);stroke-width:0.38px;stroke-linecap:butt;stroke-miterlimit:2;"/>
                    </g>
                </g>
                <g transform="matrix(0.506605,0,0,0.506605,38.716116,10.231323)">
                    <g>
                        <g transform="matrix(29.745176,0,0,29.745176,72.153163,41.338435)">
                            <path d="M0.455,-0.51L0.455,-0.68L0.03,-0.68L0.03,-0.255L0.265,-0.255L0.265,-0.17L0.03,-0.17L0.03,-0L0.455,-0L0.455,-0.425L0.22,-0.425L0.22,-0.51L0.455,-0.51Z" style="fill:rgb(245,243,238);fill-rule:nonzero;stroke:rgb(43,41,41);stroke-width:0.01px;stroke-linecap:butt;stroke-miterlimit:2;"/>
                        </g>
                        <g transform="matrix(29.745176,0,0,29.745176,88.395311,41.338435)">
                            <rect x="0.03" y="-0.68" width="0.19" height="0.68" style="fill:rgb(245,243,238);stroke:rgb(43,41,41);stroke-width:0.01px;stroke-linecap:butt;stroke-miterlimit:2;"/>
                        </g>
                        <g transform="matrix(29.745176,0,0,29.745176,97.647343,41.338435)">
                            <path d="M0.162,-0L0.352,-0L0.352,-0.51L0.49,-0.51L0.49,-0.68L0.015,-0.68L0.015,-0.51L0.162,-0.51L0.162,-0Z" style="fill:rgb(245,243,238);fill-rule:nonzero;stroke:rgb(43,41,41);stroke-width:0.01px;stroke-linecap:butt;stroke-miterlimit:2;"/>
                        </g>
                        <g transform="matrix(29.745176,0,0,29.745176,114.484395,41.338435)">
                            <path d="M0.435,-0L0.435,-0.17L0.22,-0.17L0.22,-0.255L0.42,-0.255L0.42,-0.425L0.22,-0.425L0.22,-0.51L0.435,-0.51L0.435,-0.68L0.03,-0.68L0.03,-0L0.435,-0Z" style="fill:rgb(245,243,238);fill-rule:nonzero;stroke:rgb(43,41,41);stroke-width:0.01px;stroke-linecap:butt;stroke-miterlimit:2;"/>
                        </g>
                        <g transform="matrix(29.745176,0,0,29.745176,136.409155,41.338435)">
                            <rect x="0.03" y="-0.68" width="0.19" height="0.68" style="fill:rgb(245,243,238);stroke:rgb(43,41,41);stroke-width:0.01px;stroke-linecap:butt;stroke-miterlimit:2;"/>
                        </g>
                        <g transform="matrix(29.745176,0,0,29.745176,145.661187,41.338435)">
                            <path d="M0.03,-0L0.22,-0L0.22,-0.51L0.305,-0.51L0.305,-0L0.495,-0L0.495,-0.68L0.03,-0.68L0.03,-0Z" style="fill:rgb(245,243,238);fill-rule:nonzero;stroke:rgb(43,41,41);stroke-width:0.01px;stroke-linecap:butt;stroke-miterlimit:2;"/>
                        </g>
                        <g transform="matrix(29.745176,0,0,29.745176,168.775754,41.338435)">
                            <path d="M0.52,-0L0.46,-0.68L0.075,-0.68L0.015,-0L0.205,-0L0.215,-0.127L0.32,-0.127L0.33,-0L0.52,-0ZM0.29,-0.512L0.307,-0.296L0.228,-0.296L0.245,-0.512L0.29,-0.512Z" style="fill:rgb(245,243,238);fill-rule:nonzero;stroke:rgb(43,41,41);stroke-width:0.01px;stroke-linecap:butt;stroke-miterlimit:2;"/>
                        </g>
                    </g>
                </g>
                <g id="BOX--VECTOR-" serif:id="BOX (VECTOR)" transform="matrix(1.245111,0,0,1.245111,-15.228393,9.585649)">
                    <path d="M78.697,36.282L78.697,32.236L81.969,32.236L81.969,36.282L78.697,36.282ZM78.697,28.667L78.697,26.168L81.225,26.168L81.225,28.667L78.697,28.667ZM86.877,21.112L73.046,21.112L73.046,41.338L87.621,41.338L87.622,34.502L84.929,31.523L86.877,28.983L86.877,21.112Z" style="fill:rgb(245,243,238);fill-rule:nonzero;stroke:rgb(43,41,41);stroke-width:0.11px;stroke-linecap:butt;stroke-miterlimit:2;"/>
                    <path d="M89.257,41.338L103.088,41.338L103.088,21.112L89.257,21.112L89.257,41.338ZM97.437,36.282L94.908,36.282L94.908,26.168L97.437,26.168L97.437,36.282Z" style="fill:rgb(245,243,238);fill-rule:nonzero;stroke:rgb(43,41,41);stroke-width:0.11px;stroke-linecap:butt;stroke-miterlimit:2;"/>
                    <path d="M112.934,34.884L112.934,41.338L118.585,41.338L118.585,33.694L116.622,31.523L118.288,29.351L118.288,21.112L112.636,21.112L112.636,27.566L111.655,28.994L110.673,27.566L110.673,21.112L105.022,21.112L105.022,29.351L106.687,31.523L104.724,33.694L104.724,41.338L110.376,41.338L110.376,34.884L111.566,34.884L111.655,34.794L111.744,34.884L112.934,34.884Z" style="fill:rgb(245,243,238);fill-rule:nonzero;stroke:rgb(43,41,41);stroke-width:0.11px;stroke-linecap:butt;stroke-miterlimit:2;"/>
                </g>
            </g>
        </g>
    </g>
</svg>
