<?xml version="1.0" encoding="UTF-8" standalone="no"?>
<!DOCTYPE svg PUBLIC "-//W3C//DTD SVG 1.1//EN" "http://www.w3.org/Graphics/SVG/1.1/DTD/svg11.dtd">
<svg width="100%" height="100%" viewBox="0 0 827 394" version="1.1" xmlns="http://www.w3.org/2000/svg" xmlns:xlink="http://www.w3.org/1999/xlink" xml:space="preserve" xmlns:serif="http://www.serif.com/" style="fill-rule:evenodd;clip-rule:evenodd;stroke-linejoin:round;stroke-miterlimit:2;">
    <g transform="matrix(1,0,0,1,-82.734196,-303.369454)">
        <g id="BIG-STAGE" serif:id="BIG STAGE" transform="matrix(7.278992,0,0,7.278992,-54.475155,201.578154)">
            <g transform="matrix(0.329088,0,0,0.329088,12.172489,-41.274305)">
                <g transform="matrix(1.095329,0,0,1.095329,24.943878,173.267051)">
                    <g>
                        <g>
                            <g>
                                <clipPath id="_clip1">
                                    <path d="M0.426,9.828L0.426,81.43L61.199,90.766L61.199,0.492L0.426,9.828Z"/>
                                </clipPath>
                                <g clip-path="url(#_clip1)">
                                    <g>
                                        <g>
                                            <g>
                                                <g>
                                                    <clipPath id="_clip2">
                                                        <path d="M0.426,9.828L0.426,81.43L61.199,90.766L61.199,0.492L0.426,9.828Z"/>
                                                    </clipPath>
                                                    <g clip-path="url(#_clip2)">
                                                        <rect x="0.426" y="0.492" width="60.773" height="90.211" style="fill:rgb(245,233,0);fill-rule:nonzero;"/>
                                                    </g>
                                                </g>
                                            </g>
                                        </g>
                                    </g>
                                </g>
                            </g>
                        </g>
                        <g>
                            <g>
                                <clipPath id="_clip3">
                                    <path d="M14.102,128.141L59.773,140.988L59.773,115.297L14.102,128.141Z"/>
                                </clipPath>
                                <g clip-path="url(#_clip3)">
                                    <g transform="matrix(1,0,0,1,14,115)">
                                        <g>
                                            <g>
                                                <g>
                                                    <clipPath id="_clip4">
                                                        <path d="M0.102,13.141L45.773,25.988L45.773,0.297L0.102,13.141Z"/>
                                                    </clipPath>
                                                    <g clip-path="url(#_clip4)">
                                                        <rect x="0.109" y="0.297" width="45.664" height="25.691" style="fill:rgb(245,233,0);fill-rule:nonzero;"/>
                                                    </g>
                                                </g>
                                            </g>
                                        </g>
                                    </g>
                                </g>
                            </g>
                        </g>
                        <g>
                            <g>
                                <clipPath id="_clip5">
                                    <path d="M61.203,121.246L61.203,109.332L0.43,100.508L0.43,130.07L61.203,121.246Z"/>
                                </clipPath>
                                <g clip-path="url(#_clip5)">
                                    <g transform="matrix(1,0,0,1,0,100)">
                                        <g>
                                            <g>
                                                <g>
                                                    <clipPath id="_clip6">
                                                        <path d="M61.203,21.246L61.203,9.332L0.43,0.508L0.43,30.07L61.203,21.246Z"/>
                                                    </clipPath>
                                                    <g clip-path="url(#_clip6)">
                                                        <rect x="0.43" y="0.508" width="60.738" height="29.562" style="fill:rgb(245,233,0);fill-rule:nonzero;"/>
                                                    </g>
                                                </g>
                                            </g>
                                        </g>
                                    </g>
                                </g>
                            </g>
                        </g>
                        <g>
                            <g>
                                <clipPath id="_clip7">
                                    <path d="M41.711,97.945L104.211,97.945L105.699,89.535L40.223,89.535L41.711,97.945Z"/>
                                </clipPath>
                                <g clip-path="url(#_clip7)">
                                    <g transform="matrix(1,0,0,1,40,89)">
                                        <g>
                                            <g>
                                                <g>
                                                    <clipPath id="_clip8">
                                                        <path d="M1.711,8.945L64.211,8.945L65.699,0.535L0.223,0.535L1.711,8.945Z"/>
                                                    </clipPath>
                                                    <g clip-path="url(#_clip8)">
                                                        <rect x="0.223" y="0.535" width="65.484" height="8.41" style="fill:rgb(245,233,0);fill-rule:nonzero;"/>
                                                    </g>
                                                </g>
                                            </g>
                                        </g>
                                    </g>
                                </g>
                            </g>
                        </g>
                    </g>
                </g>
                <g transform="matrix(1.095329,0,0,1.095329,-108.686292,88.926698)">
                    <clipPath id="_clip9">
                        <rect x="117.754" y="72.113" width="139.48" height="149.883"/>
                    </clipPath>
                    <g clip-path="url(#_clip9)">
                        <path d="M250.094,115.383L218.898,111.766C217.863,111.621 216.875,111.965 216.102,112.648C215.34,113.328 214.906,114.301 214.906,115.32L214.906,131.172C214.906,133.066 216.387,134.637 218.277,134.746L250.094,136.594L250.094,199.484L188,213.898L188,185.906L228.641,181.184C231.469,180.84 231.84,178.578 231.809,177.629L231.809,162.34C231.875,160.812 231.605,158.621 228.02,158.766L188,161.094L188,80.184L250.094,94.598L250.094,115.383ZM184.434,179.109L158.023,175.969L163.992,175.508L193.133,178.102L184.434,179.109ZM180.84,213.875L124.918,200.562L124.918,179.238L180.84,185.895L180.84,213.875ZM124.918,157.754L124.918,93.516L180.84,80.207L180.84,161.086L124.918,157.754ZM184.211,168.461C184.734,168.461 224.648,166.137 224.648,166.137L224.648,173.715L167.887,168.664L167.887,167.488L184.211,168.461ZM257.254,91.75C257.254,90.09 256.105,88.641 254.484,88.266L185.23,72.191C184.91,72.125 184.266,72.055 183.605,72.191C183.59,72.191 120.5,87.203 120.5,87.203C118.895,87.586 117.754,89.027 117.754,90.688L117.754,161.129C117.754,163.027 119.23,164.59 121.129,164.703L160.727,167.062L160.727,168.621L121.062,171.637C120.285,171.715 117.953,172.234 117.754,175.129C117.75,175.207 117.754,203.391 117.754,203.391C117.754,205.047 118.895,206.488 120.504,206.875L183.59,221.891C184.23,222.094 184.961,221.953 185.23,221.891L254.484,205.812C256.105,205.441 257.254,203.992 257.254,202.328L257.254,133.215C257.254,131.32 255.773,129.75 253.883,129.641L222.066,127.797L222.066,125.359L253.938,122.977C256.633,122.766 257.254,120.434 257.254,119.48L257.254,91.75" style="fill:rgb(43,42,42);fill-rule:nonzero;"/>
                    </g>
                </g>
            </g>
            <g transform="matrix(0.506605,0,0,0.506605,38.716116,10.231323)">
                <g>
                    <g transform="matrix(29.745176,0,0,29.745176,72.153163,41.338435)">
                        <path d="M0.455,-0.51L0.455,-0.68L0.03,-0.68L0.03,-0.255L0.265,-0.255L0.265,-0.17L0.03,-0.17L0.03,-0L0.455,-0L0.455,-0.425L0.22,-0.425L0.22,-0.51L0.455,-0.51Z" style="fill:rgb(43,42,42);fill-rule:nonzero;"/>
                    </g>
                    <g transform="matrix(29.745176,0,0,29.745176,88.395311,41.338435)">
                        <rect x="0.03" y="-0.68" width="0.19" height="0.68" style="fill:rgb(43,42,42);fill-rule:nonzero;"/>
                    </g>
                    <g transform="matrix(29.745176,0,0,29.745176,97.647343,41.338435)">
                        <path d="M0.162,-0L0.352,-0L0.352,-0.51L0.49,-0.51L0.49,-0.68L0.015,-0.68L0.015,-0.51L0.162,-0.51L0.162,-0Z" style="fill:rgb(43,42,42);fill-rule:nonzero;"/>
                    </g>
                    <g transform="matrix(29.745176,0,0,29.745176,114.484395,41.338435)">
                        <path d="M0.435,-0L0.435,-0.17L0.22,-0.17L0.22,-0.255L0.42,-0.255L0.42,-0.425L0.22,-0.425L0.22,-0.51L0.435,-0.51L0.435,-0.68L0.03,-0.68L0.03,-0Z" style="fill:rgb(43,42,42);fill-rule:nonzero;"/>
                    </g>
                    <g transform="matrix(29.745176,0,0,29.745176,136.409155,41.338435)">
                        <rect x="0.03" y="-0.68" width="0.19" height="0.68" style="fill:rgb(43,42,42);fill-rule:nonzero;"/>
                    </g>
                    <g transform="matrix(29.745176,0,0,29.745176,145.661187,41.338435)">
                        <path d="M0.03,-0L0.22,-0L0.22,-0.51L0.305,-0.51L0.305,-0L0.495,-0L0.495,-0.68L0.03,-0.68L0.03,-0Z" style="fill:rgb(43,42,42);fill-rule:nonzero;"/>
                    </g>
                    <g transform="matrix(29.745176,0,0,29.745176,168.775754,41.338435)">
                        <path d="M0.52,-0L0.46,-0.68L0.075,-0.68L0.015,-0L0.205,-0L0.215,-0.127L0.32,-0.127L0.33,-0L0.52,-0ZM0.29,-0.512L0.307,-0.296L0.228,-0.296L0.245,-0.512L0.29,-0.512Z" style="fill:rgb(43,42,42);fill-rule:nonzero;"/>
                    </g>
                </g>
            </g>
            <g id="BOX--VECTOR-" serif:id="BOX (VECTOR)" transform="matrix(1.245111,0,0,1.245111,-15.228393,9.585649)">
                <path d="M78.697,36.282L78.697,32.236L81.969,32.236L81.969,36.282L78.697,36.282ZM78.697,28.667L78.697,26.168L81.225,26.168L81.225,28.667L78.697,28.667ZM86.877,21.112L73.046,21.112L73.046,41.338L87.621,41.338L87.622,34.502L84.929,31.523L86.877,28.983L86.877,21.112Z" style="fill:rgb(43,42,42);fill-rule:nonzero;"/>
                <path d="M89.257,41.338L103.088,41.338L103.088,21.112L89.257,21.112L89.257,41.338ZM97.437,36.282L94.908,36.282L94.908,26.168L97.437,26.168L97.437,36.282Z" style="fill:rgb(43,42,42);fill-rule:nonzero;"/>
                <path d="M112.934,34.884L112.934,41.338L118.585,41.338L118.585,33.694L116.622,31.523L118.288,29.351L118.288,21.112L112.636,21.112L112.636,27.566L111.655,28.994L110.673,27.566L110.673,21.112L105.022,21.112L105.022,29.351L106.687,31.523L104.724,33.694L104.724,41.338L110.376,41.338L110.376,34.884L111.566,34.884L111.655,34.794L111.744,34.884L112.934,34.884Z" style="fill:rgb(43,42,42);fill-rule:nonzero;"/>
            </g>
        </g>
    </g>
</svg>
