<?xml version="1.0" encoding="UTF-8" standalone="no"?>
<!DOCTYPE svg PUBLIC "-//W3C//DTD SVG 1.1//EN" "http://www.w3.org/Graphics/SVG/1.1/DTD/svg11.dtd">
<svg width="100%" height="100%" viewBox="0 0 1000 1000" version="1.1" xmlns="http://www.w3.org/2000/svg" xmlns:xlink="http://www.w3.org/1999/xlink" xml:space="preserve" xmlns:serif="http://www.serif.com/" style="fill-rule:evenodd;clip-rule:evenodd;stroke-linejoin:round;stroke-miterlimit:2;">
    <g transform="matrix(7.278992,0,0,7.278992,-54.475155,201.578154)">
        <g transform="matrix(0.753067,0,0,0.753138,3.367015,-147.281064)">
            <g transform="matrix(1.095329,0,0,1.095329,24.943878,173.267051)">
                <g>
                    <g>
                        <g>
                            <clipPath id="_clip1">
                                <path d="M0.426,9.828L0.426,81.43L61.199,90.766L61.199,0.492L0.426,9.828Z"/>
                            </clipPath>
                            <g clip-path="url(#_clip1)">
                                <g>
                                    <g>
                                        <g>
                                            <g>
                                                <clipPath id="_clip2">
                                                    <path d="M0.426,9.828L0.426,81.43L61.199,90.766L61.199,0.492L0.426,9.828Z"/>
                                                </clipPath>
                                                <g clip-path="url(#_clip2)">
                                                    <g transform="matrix(3.45423,0,0,3.45423,-98.789446,-17.089701)">
                                                        <path d="M87.022,21.112L87.022,30.035C87.022,30.115 86.957,30.18 86.877,30.18L84.394,30.18L87.724,33.593C87.751,33.62 87.765,33.656 87.765,33.694L87.765,41.338C87.765,41.418 87.701,41.483 87.621,41.483L73.046,41.483C72.966,41.483 72.901,41.418 72.901,41.338L72.901,21.112C72.901,21.032 72.966,20.967 73.046,20.967L86.877,20.967C86.957,20.967 87.022,21.032 87.022,21.112ZM78.842,36.137L81.824,36.137L81.824,32.381L78.842,32.381L78.842,36.137ZM78.842,28.522L81.081,28.522L81.081,26.313L78.842,26.313L78.842,28.522Z" style="fill:rgb(245,243,238);stroke:rgb(245,243,238);stroke-width:0.05px;"/>
                                                    </g>
                                                    <path d="M61.699,0.492L61.699,90.703C61.699,90.979 61.475,91.203 61.199,91.203L0.426,91.203C0.15,91.203 -0.074,90.979 -0.074,90.703L-0.074,0.492C-0.074,0.216 0.15,-0.007 0.426,-0.007L61.199,-0.007C61.475,-0.007 61.699,0.216 61.699,0.492Z" style="fill:rgb(245,243,238);stroke:rgb(245,243,238);stroke-width:0.17px;"/>
                                                </g>
                                            </g>
                                        </g>
                                    </g>
                                </g>
                            </g>
                        </g>
                    </g>
                    <g>
                        <g>
                            <clipPath id="_clip3">
                                <path d="M14.102,128.141L59.773,140.988L59.773,115.297L14.102,128.141Z"/>
                            </clipPath>
                            <g clip-path="url(#_clip3)">
                                <g transform="matrix(1,0,0,1,14,115)">
                                    <g>
                                        <g>
                                            <g>
                                                <clipPath id="_clip4">
                                                    <path d="M0.102,13.141L45.773,25.988L45.773,0.297L0.102,13.141Z"/>
                                                </clipPath>
                                                <g clip-path="url(#_clip4)">
                                                    <path d="M46.273,0.297L46.273,25.988C46.273,26.264 46.049,26.488 45.773,26.488L0.109,26.488C-0.167,26.488 -0.39,26.264 -0.39,25.988L-0.39,0.297C-0.39,0.021 -0.167,-0.203 0.109,-0.203L45.773,-0.203C46.049,-0.203 46.273,0.021 46.273,0.297Z" style="fill:rgb(245,243,238);stroke:rgb(245,243,238);stroke-width:0.17px;"/>
                                                </g>
                                            </g>
                                        </g>
                                    </g>
                                </g>
                            </g>
                        </g>
                    </g>
                    <g>
                        <g>
                            <clipPath id="_clip5">
                                <path d="M61.203,121.246L61.203,109.332L0.43,100.508L0.43,130.07L61.203,121.246Z"/>
                            </clipPath>
                            <g clip-path="url(#_clip5)">
                                <g transform="matrix(1,0,0,1,0,100)">
                                    <g>
                                        <g>
                                            <g>
                                                <clipPath id="_clip6">
                                                    <path d="M61.203,21.246L61.203,9.332L0.43,0.508L0.43,30.07L61.203,21.246Z"/>
                                                </clipPath>
                                                <g clip-path="url(#_clip6)">
                                                    <path d="M-0.07,30.07L-0.07,0.508C-0.07,0.232 0.154,0.008 0.43,0.008L61.168,0.008C61.444,0.008 61.668,0.232 61.668,0.508L61.668,30.07C61.668,30.346 61.444,30.57 61.168,30.57L0.43,30.57C0.154,30.57 -0.07,30.346 -0.07,30.07Z" style="fill:rgb(245,243,238);stroke:rgb(245,243,238);stroke-width:0.17px;"/>
                                                </g>
                                            </g>
                                        </g>
                                    </g>
                                </g>
                            </g>
                        </g>
                    </g>
                    <g>
                        <g>
                            <clipPath id="_clip7">
                                <path d="M41.711,97.945L104.211,97.945L105.699,89.535L40.223,89.535L41.711,97.945Z"/>
                            </clipPath>
                            <g clip-path="url(#_clip7)">
                                <g transform="matrix(1,0,0,1,40,89)">
                                    <g>
                                        <g>
                                            <g>
                                                <clipPath id="_clip8">
                                                    <path d="M1.711,8.945L64.211,8.945L65.699,0.535L0.223,0.535L1.711,8.945Z"/>
                                                </clipPath>
                                                <g clip-path="url(#_clip8)">
                                                    <path d="M0.223,0.036L65.707,0.036C65.983,0.036 66.207,0.259 66.207,0.535L66.207,8.945C66.207,9.221 65.983,9.445 65.707,9.445L0.223,9.445C-0.053,9.445 -0.277,9.221 -0.277,8.945L-0.277,0.535C-0.277,0.259 -0.053,0.036 0.223,0.036Z" style="fill:rgb(245,243,238);stroke:rgb(245,243,238);stroke-width:0.17px;"/>
                                                </g>
                                            </g>
                                        </g>
                                    </g>
                                </g>
                            </g>
                        </g>
                    </g>
                </g>
                <g transform="matrix(0.381129,0,0,0.381129,-35.780236,-120.509838)">
                    <g transform="matrix(1,0,0,1.196959,-0,-105.730639)">
                        <path d="M249.574,359.525L249.574,536.815C249.574,537.118 249.424,537.407 249.159,537.614C248.895,537.821 248.54,537.927 248.179,537.908L101.452,530.042C100.762,530.005 100.225,529.527 100.225,528.949L100.225,388.698C100.225,388.191 100.642,387.75 101.232,387.633L247.959,358.46C248.349,358.382 248.76,358.458 249.075,358.666C249.39,358.873 249.574,359.19 249.574,359.525Z" style="fill:rgb(245,243,238);stroke:rgb(245,243,238);stroke-width:0.4px;stroke-linecap:round;stroke-miterlimit:1.5;"/>
                    </g>
                    <g>
                        <g id="BOX--VECTOR-" serif:id="BOX (VECTOR)" transform="matrix(1.118246,0,0,1.118246,-17.782015,77.143799)">
                            <g transform="matrix(2.513511,0,0,2.513511,-68.525866,298.740343)">
                                <path d="M87.343,22.169L87.343,28.937C87.343,29.053 87.301,29.164 87.223,29.249L85.577,31.076L87.946,33.364C88.037,33.452 88.088,33.573 88.088,33.7L88.087,39.598C88.087,39.725 88.035,39.848 87.942,39.936C87.849,40.024 87.725,40.07 87.597,40.063L73.022,39.323C72.774,39.311 72.579,39.106 72.579,38.858L72.579,22.587C72.579,22.335 72.779,22.128 73.031,22.121L86.863,21.703C86.989,21.699 87.111,21.747 87.202,21.835C87.292,21.923 87.343,22.043 87.343,22.169ZM79.164,34.51L81.503,34.582L81.503,32.124L79.164,32.09L79.164,34.51ZM79.164,28.198L80.759,28.199L80.759,27.044L79.164,27.06L79.164,28.198Z" style="fill:rgb(245,243,238);stroke:rgb(245,243,238);stroke-width:0.16px;"/>
                            </g>
                            <path d="M154.649,398.478L154.649,354.283C154.649,353.649 155.153,353.13 155.786,353.111L190.552,352.062C190.869,352.052 191.176,352.171 191.404,352.392C191.631,352.613 191.76,352.916 191.76,353.233L191.76,400.243C191.76,400.564 191.628,400.871 191.395,401.092C191.162,401.314 190.849,401.43 190.528,401.413L155.762,399.649C155.139,399.617 154.649,399.102 154.649,398.478ZM175.21,386.848L175.21,366.311L171.199,366.351L171.199,386.726L175.21,386.848Z" style="fill:rgb(245,243,238);stroke:rgb(245,243,238);stroke-width:0.39px;"/>
                            <path d="M212.091,386.928C212.017,386.941 211.942,386.946 211.866,386.944L210.077,386.9L210.077,401.172C210.077,401.494 209.945,401.801 209.712,402.022C209.48,402.243 209.166,402.36 208.845,402.343L194.64,401.622C194.016,401.591 193.527,401.076 193.527,400.451L193.527,382.559C193.527,382.252 193.648,381.957 193.863,381.738L198.062,377.461L194.538,373.137C194.368,372.928 194.275,372.666 194.275,372.396L194.275,353.087C194.275,352.453 194.778,351.934 195.412,351.915L209.617,351.486C209.934,351.477 210.241,351.596 210.469,351.817C210.696,352.037 210.825,352.341 210.825,352.658L210.825,367.774L212.117,369.571L213.414,367.755L213.414,352.509C213.414,351.875 213.918,351.356 214.551,351.337L228.757,350.908C229.074,350.899 229.381,351.018 229.609,351.239C229.836,351.46 229.965,351.763 229.965,352.08L229.965,372.489C229.965,372.752 229.876,373.007 229.714,373.213L226.139,377.766L230.408,382.474C230.604,382.69 230.712,382.97 230.712,383.262L230.712,402.22C230.712,402.541 230.58,402.848 230.347,403.07C230.115,403.291 229.801,403.407 229.48,403.391L215.275,402.67C214.651,402.638 214.162,402.123 214.162,401.499L214.162,387.002L212.315,386.955C212.239,386.954 212.164,386.944 212.091,386.928Z" style="fill:rgb(245,243,238);stroke:rgb(245,243,238);stroke-width:0.39px;"/>
                        </g>
                        <g transform="matrix(1,0,0,1,85.55143,52.576775)">
                            <path d="M153.417,404.441L138.613,405.211C137.905,405.248 137.296,404.715 137.238,404.009L136.564,395.792L130.798,396.173L130.111,404.516C130.058,405.17 129.528,405.683 128.873,405.717L114.069,406.487C113.688,406.507 113.318,406.361 113.055,406.086C112.791,405.811 112.66,405.435 112.695,405.056L117.37,355.152C117.428,354.541 117.901,354.051 118.51,353.974L148.508,350.15C148.861,350.105 149.217,350.206 149.495,350.429C149.772,350.652 149.947,350.978 149.979,351.333L154.654,403.014C154.686,403.369 154.573,403.721 154.339,403.991C154.106,404.26 153.773,404.422 153.417,404.441ZM134.232,367.169L133.14,367.288L132.03,380.869L135.338,380.589L134.232,367.169Z" style="fill:rgb(245,243,238);stroke:rgb(245,243,238);stroke-width:0.44px;"/>
                        </g>
                        <g transform="matrix(1,0,0,1,-4.269403,52.576775)">
                            <path d="M113.858,409.789L113.858,367.168C113.858,366.509 114.349,365.951 115.004,365.868L129.808,363.981C130.181,363.934 130.557,364.049 130.84,364.298C131.123,364.547 131.285,364.905 131.285,365.282L131.285,409.019C131.285,409.717 130.738,410.292 130.042,410.328L115.238,411.098C114.878,411.117 114.528,410.987 114.267,410.74C114.006,410.492 113.858,410.149 113.858,409.789Z" style="fill:rgb(245,243,238);stroke:rgb(245,243,238);stroke-width:0.44px;"/>
                            <path d="M133.338,408.776L133.338,364.686C133.338,364.026 133.828,363.469 134.483,363.385L170.714,358.768C171.088,358.72 171.464,358.836 171.746,359.084C172.029,359.333 172.191,359.692 172.191,360.068L172.191,406.892C172.191,407.589 171.645,408.165 170.948,408.201L156.144,408.971C155.785,408.989 155.434,408.86 155.173,408.612C154.912,408.365 154.765,408.021 154.765,407.662L154.765,374.843L150.764,375.277L150.764,408.006C150.764,408.704 150.217,409.279 149.521,409.315L134.717,410.085C134.358,410.104 134.007,409.974 133.746,409.727C133.485,409.479 133.338,409.135 133.338,408.776Z" style="fill:rgb(245,243,238);stroke:rgb(245,243,238);stroke-width:0.44px;"/>
                        </g>
                        <g transform="matrix(1.040751,0,0,1.040751,-8.864234,-32.141181)">
                            <path d="M147.104,386.369L130.54,389.778L130.54,392.466L146.607,389.311C146.977,389.238 147.359,389.335 147.65,389.574C147.941,389.813 148.11,390.17 148.11,390.547L148.11,417.603C148.11,418.227 147.653,418.757 147.036,418.849L115.261,423.592C114.898,423.646 114.53,423.54 114.253,423.301C113.975,423.061 113.815,422.713 113.815,422.346L113.815,412.122C113.815,411.507 114.259,410.982 114.866,410.88L131.385,408.103L131.385,405.394L115.295,408.25C114.928,408.316 114.551,408.215 114.266,407.976C113.98,407.736 113.815,407.383 113.815,407.01L113.815,381.45C113.815,380.861 114.224,380.35 114.799,380.221L146.574,373.084C146.947,373 147.338,373.09 147.637,373.329C147.936,373.568 148.11,373.93 148.11,374.313L148.11,385.135C148.11,385.733 147.689,386.249 147.104,386.369Z" style="fill:rgb(245,243,238);stroke:rgb(245,243,238);stroke-width:0.42px;"/>
                            <path d="M150.076,416.934L150.076,373.305C150.076,372.716 150.485,372.206 151.06,372.076L165.265,368.886C165.638,368.802 166.029,368.892 166.328,369.131C166.627,369.37 166.801,369.732 166.801,370.115L166.801,414.813C166.801,415.437 166.344,415.967 165.727,416.059L151.522,418.179C151.159,418.234 150.791,418.127 150.513,417.888C150.236,417.649 150.076,417.3 150.076,416.934Z" style="fill:rgb(245,243,238);stroke:rgb(245,243,238);stroke-width:0.42px;"/>
                            <path d="M178.636,412.671L178.636,379.881L169.159,381.831C168.789,381.907 168.403,381.812 168.11,381.573C167.816,381.334 167.646,380.976 167.646,380.597L167.646,369.359C167.646,368.77 168.054,368.259 168.629,368.13L204.143,360.153C204.516,360.07 204.907,360.16 205.206,360.399C205.505,360.638 205.678,361 205.678,361.382L205.678,373.289C205.678,373.887 205.258,374.402 204.673,374.523L195.361,376.439L195.361,410.55C195.361,411.174 194.904,411.704 194.287,411.796L180.082,413.916C179.719,413.97 179.351,413.864 179.074,413.625C178.796,413.385 178.636,413.037 178.636,412.671Z" style="fill:rgb(245,243,238);stroke:rgb(245,243,238);stroke-width:0.42px;"/>
                            <path d="M238.249,405.234L207.969,409.753C207.607,409.808 207.239,409.701 206.961,409.462C206.683,409.223 206.524,408.874 206.524,408.508L206.524,360.627C206.524,360.037 206.932,359.527 207.507,359.398L237.787,352.597C238.16,352.513 238.551,352.603 238.85,352.842C239.149,353.081 239.323,353.443 239.323,353.825L239.323,366.366C239.323,366.964 238.902,367.479 238.317,367.6L223.248,370.7L223.248,374.262L236.699,371.621C237.068,371.548 237.451,371.645 237.742,371.884C238.033,372.123 238.201,372.48 238.201,372.857L238.201,385.376C238.201,385.987 237.763,386.509 237.162,386.616L223.248,389.086L223.248,392.66L237.854,390.205C238.22,390.144 238.594,390.246 238.877,390.486C239.159,390.725 239.323,391.077 239.323,391.447L239.323,403.988C239.323,404.612 238.866,405.141 238.249,405.234Z" style="fill:rgb(245,243,238);stroke:rgb(245,243,238);stroke-width:0.42px;"/>
                        </g>
                    </g>
                </g>
            </g>
            <g transform="matrix(1.095329,0,0,1.095329,-108.686292,88.926698)">
                <g transform="matrix(0.166552,0,0,0.166536,104.218066,63.779398)">
                    <path d="M872.856,306.495L688.933,285.166C681.846,284.188 675.072,286.515 669.776,291.196L669.765,291.205C664.553,295.856 661.586,302.511 661.586,309.487L661.586,404.671C661.586,417.635 671.717,428.38 684.653,429.128L872.856,440.059L872.856,812.483L506.037,897.642L506.037,736.006L747.395,707.956L747.411,707.954C755.134,707.015 760.138,703.906 763.391,700.188C768.277,694.604 769.189,687.498 769.069,683.579L769.07,591.888C769.335,585.598 768.524,577.767 762.729,572.652C758.924,569.294 752.876,566.975 743.199,567.365L743.145,567.368L506.037,581.163L506.037,102.278L872.856,187.437L872.856,306.495Z" style="fill:rgb(245,243,238);"/>
                </g>
                <g transform="matrix(0.166552,0,0,0.166536,104.218066,63.779398)">
                    <path d="M481.629,689.5L353.795,674.297L358.874,673.905L504.414,686.86L481.629,689.5Z" style="fill:rgb(245,243,238);"/>
                </g>
                <path d="M183.605,71.359L183.437,71.376C184.234,71.211 185.013,71.296 185.4,71.376L185.419,71.38L254.672,87.454C256.671,87.917 258.087,89.703 258.087,91.75L258.087,119.48C258.087,120.657 257.33,123.546 254.002,123.807L254,123.807L222.899,126.132L222.899,127.011L253.931,128.809C256.261,128.944 258.087,130.88 258.087,133.215L258.087,202.328C258.087,204.379 256.67,206.165 254.672,206.624L185.419,222.702C185.081,222.78 184.173,222.938 183.37,222.694L120.311,207.685L120.309,207.685C118.326,207.208 116.921,205.432 116.921,203.391C116.921,203.391 116.918,175.166 116.922,175.087L116.923,175.072C117.167,171.531 120.028,170.904 120.979,170.808L120.999,170.806L159.894,167.849L159.894,167.847L121.079,165.534C118.74,165.395 116.921,163.468 116.921,161.129L116.921,90.688C116.921,88.641 118.328,86.865 120.307,86.393L120.307,86.393C120.307,86.393 171.41,74.234 181.642,71.802C182.896,71.504 183.6,71.359 183.605,71.359ZM180.007,212.821L180.007,186.634L125.751,180.176L125.751,199.905L180.007,212.821ZM125.751,156.969L180.007,160.202L180.007,81.261L125.751,94.173L125.751,156.969ZM184.313,169.29L223.816,172.805L223.816,167.019C218.095,167.352 186.397,169.194 184.313,169.29ZM249.261,114.448L249.261,95.259L188.833,81.232L188.833,160.211L227.971,157.934L227.986,157.934C229.716,157.864 230.792,158.297 231.473,158.897C232.517,159.819 232.688,161.222 232.641,162.357L232.641,177.612C232.662,178.319 232.494,179.599 231.613,180.606C231.028,181.275 230.131,181.841 228.741,182.01L228.737,182.011L188.833,186.648L188.833,212.85L249.261,198.823L249.261,137.379L218.229,135.577C215.899,135.443 214.073,133.507 214.073,131.172L214.073,115.32C214.073,114.064 214.608,112.865 215.547,112.027L215.55,112.025C216.504,111.181 217.726,110.764 219.003,110.94L249.261,114.448ZM180.836,177.843L184.435,178.271L184.96,178.21L180.836,177.843Z" style="fill:rgb(245,243,238);stroke:rgb(245,243,238);stroke-width:0.17px;"/>
            </g>
        </g>
    </g>
    <g id="LOGO-ICON" serif:id="LOGO ICON" transform="matrix(7.278992,0,0,7.278992,-54.475155,201.578154)">
        <g transform="matrix(0.753067,0,0,0.753138,3.367015,-147.281064)">
            <g transform="matrix(1.095329,0,0,1.095329,24.943878,173.267051)">
                <g>
                    <g>
                        <g>
                            <clipPath id="_clip9">
                                <path d="M0.426,9.828L0.426,81.43L61.199,90.766L61.199,0.492L0.426,9.828Z"/>
                            </clipPath>
                            <g clip-path="url(#_clip9)">
                                <g>
                                    <g>
                                        <g>
                                            <g>
                                                <clipPath id="_clip10">
                                                    <path d="M0.426,9.828L0.426,81.43L61.199,90.766L61.199,0.492L0.426,9.828Z"/>
                                                </clipPath>
                                                <g clip-path="url(#_clip10)">
                                                    <rect x="0.426" y="0.492" width="60.773" height="90.211" style="fill:rgb(245,233,0);fill-rule:nonzero;"/>
                                                </g>
                                            </g>
                                        </g>
                                    </g>
                                </g>
                            </g>
                        </g>
                    </g>
                    <g>
                        <g>
                            <clipPath id="_clip11">
                                <path d="M14.102,128.141L59.773,140.988L59.773,115.297L14.102,128.141Z"/>
                            </clipPath>
                            <g clip-path="url(#_clip11)">
                                <g transform="matrix(1,0,0,1,14,115)">
                                    <g>
                                        <g>
                                            <g>
                                                <clipPath id="_clip12">
                                                    <path d="M0.102,13.141L45.773,25.988L45.773,0.297L0.102,13.141Z"/>
                                                </clipPath>
                                                <g clip-path="url(#_clip12)">
                                                    <rect x="0.109" y="0.297" width="45.664" height="25.691" style="fill:rgb(245,233,0);fill-rule:nonzero;"/>
                                                </g>
                                            </g>
                                        </g>
                                    </g>
                                </g>
                            </g>
                        </g>
                    </g>
                    <g>
                        <g>
                            <clipPath id="_clip13">
                                <path d="M61.203,121.246L61.203,109.332L0.43,100.508L0.43,130.07L61.203,121.246Z"/>
                            </clipPath>
                            <g clip-path="url(#_clip13)">
                                <g transform="matrix(1,0,0,1,0,100)">
                                    <g>
                                        <g>
                                            <g>
                                                <clipPath id="_clip14">
                                                    <path d="M61.203,21.246L61.203,9.332L0.43,0.508L0.43,30.07L61.203,21.246Z"/>
                                                </clipPath>
                                                <g clip-path="url(#_clip14)">
                                                    <rect x="0.43" y="0.508" width="60.738" height="29.562" style="fill:rgb(245,233,0);fill-rule:nonzero;"/>
                                                </g>
                                            </g>
                                        </g>
                                    </g>
                                </g>
                            </g>
                        </g>
                    </g>
                    <g>
                        <g>
                            <clipPath id="_clip15">
                                <path d="M41.711,97.945L104.211,97.945L105.699,89.535L40.223,89.535L41.711,97.945Z"/>
                            </clipPath>
                            <g clip-path="url(#_clip15)">
                                <g transform="matrix(1,0,0,1,40,89)">
                                    <g>
                                        <g>
                                            <g>
                                                <clipPath id="_clip16">
                                                    <path d="M1.711,8.945L64.211,8.945L65.699,0.535L0.223,0.535L1.711,8.945Z"/>
                                                </clipPath>
                                                <g clip-path="url(#_clip16)">
                                                    <rect x="0.223" y="0.535" width="65.484" height="8.41" style="fill:rgb(245,233,0);fill-rule:nonzero;"/>
                                                </g>
                                            </g>
                                        </g>
                                    </g>
                                </g>
                            </g>
                        </g>
                    </g>
                </g>
                <g transform="matrix(0.381129,0,0,0.381129,-35.780236,-120.509838)">
                    <g>
                        <g transform="matrix(1,0,0,1.196959,-0,-105.730639)">
                            <path d="M248.263,359.525L248.263,536.815C199.354,534.193 150.445,531.571 101.536,528.949L101.536,388.698C150.445,378.974 199.354,369.249 248.263,359.525Z" style="fill:rgb(245,233,0);"/>
                        </g>
                        <g>
                            <g id="BOX--VECTOR-1" serif:id="BOX (VECTOR)" transform="matrix(1.118246,0,0,1.118246,-17.782015,77.143799)">
                                <g transform="matrix(2.513511,0,0,2.513511,-68.525866,298.740343)">
                                    <path d="M78.697,34.963L78.697,31.617C79.788,31.633 80.878,31.648 81.969,31.664L81.969,35.062C80.878,35.029 79.788,34.996 78.697,34.963ZM78.697,28.665L78.697,26.598C79.54,26.59 80.383,26.582 81.225,26.573L81.225,28.665C80.383,28.665 79.54,28.665 78.697,28.665ZM86.877,22.169C82.267,22.309 77.656,22.448 73.046,22.587L73.046,38.858C77.904,39.104 82.762,39.351 87.621,39.598C87.621,37.632 87.621,35.665 87.622,33.699C86.275,32.383 85.145,31.305 84.929,31.098C85.085,30.926 85.903,30.027 86.877,28.937L86.877,22.169Z" style="fill:rgb(43,42,42);fill-rule:nonzero;"/>
                                </g>
                                <path d="M155.822,398.478C167.41,399.066 178.999,399.654 190.587,400.243L190.587,353.233C178.999,353.583 167.41,353.933 155.822,354.283L155.822,398.478ZM176.382,388.057C174.264,387.992 172.145,387.927 170.027,387.863L170.027,365.19C172.145,365.169 174.264,365.148 176.382,365.127L176.382,388.057Z" style="fill:rgb(43,42,42);fill-rule:nonzero;"/>
                                <path d="M215.334,385.858L215.334,401.499C220.07,401.739 224.805,401.98 229.54,402.22L229.54,383.262C229.147,382.825 227.073,380.519 224.605,377.82C226.699,375.173 228.459,372.917 228.792,372.489L228.792,352.08C224.057,352.223 219.322,352.366 214.587,352.509L214.587,368.13C213.764,369.281 212.942,370.432 212.12,371.582C211.297,370.439 210.475,369.295 209.652,368.152L209.652,352.658C204.917,352.801 200.182,352.944 195.447,353.087L195.447,372.396C197.54,374.947 199.3,377.121 199.634,377.533C199.241,377.937 197.167,380.067 194.699,382.559L194.699,400.451C199.434,400.692 204.17,400.932 208.905,401.172L208.905,385.698C209.902,385.723 210.898,385.748 211.895,385.772L212.12,385.563L212.344,385.784C213.341,385.808 214.338,385.833 215.334,385.858Z" style="fill:rgb(43,42,42);fill-rule:nonzero;"/>
                            </g>
                            <g transform="matrix(1,0,0,1,85.55143,52.576775)">
                                <g transform="matrix(77.916667,0,0,77.916667,112.831903,402.644953)">
                                    <path d="M0.52,0.006L0.46,-0.657L0.075,-0.608L0.015,0.033L0.205,0.023L0.215,-0.099L0.32,-0.106L0.33,0.016L0.52,0.006ZM0.29,-0.474L0.307,-0.268L0.228,-0.261L0.245,-0.469L0.29,-0.474Z" style="fill:rgb(43,42,42);fill-rule:nonzero;"/>
                                </g>
                            </g>
                            <g transform="matrix(1,0,0,1,-4.269403,52.576775)">
                                <g>
                                    <g transform="matrix(77.916667,0,0,77.916667,112.831903,402.644953)">
                                        <path d="M0.03,0.092L0.22,0.082L0.22,-0.48L0.03,-0.455L0.03,0.092Z" style="fill:rgb(43,42,42);fill-rule:nonzero;"/>
                                    </g>
                                    <g transform="matrix(77.916667,0,0,77.916667,132.31107,402.644953)">
                                        <path d="M0.03,0.079L0.22,0.069L0.22,-0.366L0.305,-0.376L0.305,0.064L0.495,0.055L0.495,-0.546L0.03,-0.487L0.03,0.079Z" style="fill:rgb(43,42,42);fill-rule:nonzero;"/>
                                    </g>
                                </g>
                            </g>
                            <g transform="matrix(1.040751,0,0,1.040751,-8.864234,-32.141181)">
                                <g>
                                    <g transform="matrix(74.764828,0,0,74.764828,112.831903,402.644953)">
                                        <path d="M0.455,-0.234L0.455,-0.379L0.03,-0.283L0.03,0.058L0.265,0.017L0.265,0.087L0.03,0.127L0.03,0.264L0.455,0.2L0.455,-0.162L0.22,-0.116L0.22,-0.186L0.455,-0.234Z" style="fill:rgb(43,42,42);fill-rule:nonzero;"/>
                                    </g>
                                    <g transform="matrix(74.764828,0,0,74.764828,149.092844,402.644953)">
                                        <path d="M0.03,0.191L0.22,0.163L0.22,-0.435L0.03,-0.392L0.03,0.191Z" style="fill:rgb(43,42,42);fill-rule:nonzero;"/>
                                    </g>
                                    <g transform="matrix(74.764828,0,0,74.764828,167.784051,402.644953)">
                                        <path d="M0.162,0.134L0.352,0.106L0.352,-0.364L0.49,-0.393L0.49,-0.552L0.015,-0.445L0.015,-0.295L0.162,-0.325L0.162,0.134Z" style="fill:rgb(43,42,42);fill-rule:nonzero;"/>
                                    </g>
                                    <g transform="matrix(74.764828,0,0,74.764828,205.540289,402.644953)">
                                        <path d="M0.435,0.018L0.435,-0.15L0.22,-0.114L0.22,-0.195L0.42,-0.231L0.42,-0.398L0.22,-0.359L0.22,-0.441L0.435,-0.485L0.435,-0.653L0.03,-0.562L0.03,0.078L0.435,0.018Z" style="fill:rgb(43,42,42);fill-rule:nonzero;"/>
                                    </g>
                                </g>
                            </g>
                        </g>
                    </g>
                </g>
            </g>
            <g transform="matrix(1.095329,0,0,1.095329,-108.686292,88.926698)">
                <path d="M250.094,115.383L218.898,111.766C217.863,111.621 216.875,111.965 216.102,112.648C215.34,113.328 214.906,114.301 214.906,115.32L214.906,131.172C214.906,133.066 216.387,134.637 218.277,134.746L250.094,136.594L250.094,199.484L188,213.898L188,185.906L228.641,181.184C231.469,180.84 231.84,178.578 231.809,177.629L231.809,162.34C231.875,160.812 231.605,158.621 228.02,158.766L188,161.094L188,80.184L250.094,94.598L250.094,115.383ZM184.434,179.109L158.023,175.969L163.992,175.508L193.133,178.102L184.434,179.109ZM180.84,213.875L124.918,200.562L124.918,179.238L180.84,185.895L180.84,213.875ZM124.918,157.754L124.918,93.516L180.84,80.207L180.84,161.086L124.918,157.754ZM184.211,168.461C184.734,168.461 224.648,166.137 224.648,166.137L224.648,173.715L167.887,168.664L167.887,167.488L184.211,168.461ZM257.254,91.75C257.254,90.09 256.105,88.641 254.484,88.266L185.23,72.191C184.91,72.125 184.266,72.055 183.605,72.191C183.59,72.191 120.5,87.203 120.5,87.203C118.895,87.586 117.754,89.027 117.754,90.688L117.754,161.129C117.754,163.027 119.23,164.59 121.129,164.703L160.727,167.062L160.727,168.621L121.062,171.637C120.285,171.715 117.953,172.234 117.754,175.129C117.75,175.207 117.754,203.391 117.754,203.391C117.754,205.047 118.895,206.488 120.504,206.875L183.59,221.891C184.23,222.094 184.961,221.953 185.23,221.891L254.484,205.812C256.105,205.441 257.254,203.992 257.254,202.328L257.254,133.215C257.254,131.32 255.773,129.75 253.883,129.641L222.066,127.797L222.066,125.359L253.938,122.977C256.633,122.766 257.254,120.434 257.254,119.48L257.254,91.75" style="fill:rgb(43,42,42);fill-rule:nonzero;"/>
            </g>
        </g>
    </g>
</svg>
